<svg width="724" height="430" viewBox="0 0 724 430" fill="none" xmlns="http://www.w3.org/2000/svg">
<g id="Group 2">
<g id="main-1" filter="url(#filter0_i_2_78)">
<rect id="main-1" x="5" width="714" height="430" rx="20" fill="url(#paint0_linear_2_78)"/>
</g>
<rect id="main-2" x="45" y="31" width="634" height="291" rx="15" fill="url(#paint1_linear_2_78)"/>
<line id="main-1" x1="99" y1="79" x2="625" y2="79" stroke="#2C3950" stroke-width="2"/>
<line id="main-1" x1="99" y1="119" x2="625" y2="119" stroke="#2C3950" stroke-width="2"/>
<rect id="main-1" x="180" y="160" width="364" height="82" rx="15" fill="#2C3950"/>
<g id="Ellipse 1" filter="url(#filter1_i_2_78)">
<circle cx="238.5" cy="200.5" r="31.5" fill="#D9D9D9"/>
</g>
<g id="Ellipse 2" filter="url(#filter2_i_2_78)">
<circle cx="487.5" cy="200.5" r="31.5" fill="#D9D9D9"/>
</g>
<rect id="Rectangle 1" x="305" y="175" width="112" height="51" rx="5" fill="#D9D9D9"/>
<g id="Group 1">
<g id="border">
<g filter="url(#filter3_i_2_78)">
<path id="main-1" d="M198 351H536L566 429H164L198 351Z" fill="#2C3950"/>
</g>
<path d="M164.763 428.5L198.327 351.5H535.657L565.272 428.5H164.763Z" stroke="#8A92A2" stroke-opacity="0.51"/>
</g>
<circle id="Ellipse 3" cx="219.5" cy="405.5" r="12.5" fill="#232934"/>
<circle id="Ellipse 5" cx="24" cy="413" r="9.5" fill="#1C1C1C" stroke="#E8DEDE"/>
<g id="Ellipse 6" filter="url(#filter4_i_2_78)">
<circle cx="23" cy="18" r="10" fill="#FEECD8"/>
</g>
<circle id="Ellipse 7" cx="701" cy="18" r="9.5" fill="#1C1C1C" stroke="#DEDADA"/>
<circle id="Ellipse 8" cx="701" cy="413" r="9.5" fill="#1C1C1C" stroke="#D5CFCF"/>
<g id="Ellipse 9">
<circle cx="361.5" cy="367.5" r="7.5" fill="#1C1C1C"/>
<circle cx="361.5" cy="367.5" r="7.25" stroke="#D2C5C5" stroke-opacity="0.51" stroke-width="0.5"/>
</g>
<circle id="Ellipse 4" cx="506.5" cy="405.5" r="12.5" fill="#232934"/>
<rect id="Rectangle 2" x="238" y="375" width="18" height="18" rx="5" fill="#232934"/>
<line id="Line 4" x1="33.9689" y1="413.499" x2="14.3339" y2="412.274" stroke="#CECCCC"/>
<rect id="Rectangle 3" x="470" y="375" width="18" height="18" rx="5" fill="#232934"/>
<line id="Line 5" x1="368.119" y1="364.22" x2="355.119" y2="371.22" stroke="#CECCCC" stroke-width="0.5"/>
<line id="Line 3" x1="710.367" y1="409.802" x2="691.902" y2="416.948" stroke="#CECCCC"/>
<line id="Line 2" x1="703.454" y1="8.39654" x2="699.526" y2="27.8019" stroke="#CECCCC"/>
<line id="Line 1" x1="15.3412" y1="10.6345" x2="30.3412" y2="24.6345" stroke="#2C3950" stroke-opacity="0.87"/>
<g id="Ellipse 10" filter="url(#filter5_i_2_78)">
<circle cx="701" cy="18" r="10" transform="rotate(67.9005 701 18)" fill="#FEECD8"/>
</g>
<line id="Line 6" x1="704.943" y1="8.13282" x2="697.615" y2="27.2978" stroke="#2C3950" stroke-opacity="0.87"/>
<g id="Ellipse 11" filter="url(#filter6_i_2_78)">
<circle cx="701.027" cy="413.027" r="10" transform="rotate(123.924 701.027 413.027)" fill="#FEECD8"/>
</g>
<line id="Line 7" x1="711.414" y1="410.783" x2="691.425" y2="415.416" stroke="#2C3950" stroke-opacity="0.87"/>
<g id="Ellipse 12" filter="url(#filter7_i_2_78)">
<circle cx="23.8787" cy="412.879" r="10" transform="rotate(55.4954 23.8787 412.879)" fill="#FEECD8"/>
</g>
<line id="Line 8" x1="25.61" y1="402.395" x2="22.57" y2="422.687" stroke="#2C3950" stroke-opacity="0.87"/>
<g id="Ellipse 13" filter="url(#filter8_i_2_78)">
<circle cx="361.5" cy="367.5" r="7.55095" transform="rotate(127.165 361.5 367.5)" fill="#FEECD8"/>
</g>
<line id="Line 9" x1="369.447" y1="366.372" x2="354.18" y2="369.012" stroke="#2C3950" stroke-opacity="0.87"/>
<rect id="main-1" y="307" width="9" height="83" rx="4.5" fill="#2C3950"/>
<rect id="main-1" x="715" y="307" width="9" height="83" rx="4.5" fill="#2C3950"/>
</g>
<rect id="Rectangle 4" x="250" y="179" width="6" height="6" fill="#A0A0A0"/>
<rect id="Rectangle 6" x="258" y="197" width="5" height="6" fill="#A0A0A0"/>
<rect id="Rectangle 7" x="250" y="217" width="6" height="6" fill="#A0A0A0"/>
<rect id="Rectangle 8" x="214" y="197" width="5" height="6" fill="#A0A0A0"/>
<rect id="Rectangle 10" x="220" y="217" width="6" height="6" fill="#A0A0A0"/>
<rect id="Rectangle 12" x="220" y="179" width="6" height="6" fill="#A0A0A0"/>
<rect id="Rectangle 13" x="499" y="179" width="6" height="6" fill="#A0A0A0"/>
<rect id="Rectangle 14" x="507" y="197" width="5" height="6" fill="#A0A0A0"/>
<rect id="Rectangle 15" x="499" y="217" width="6" height="6" fill="#A0A0A0"/>
<rect id="Rectangle 16" x="463" y="197" width="5" height="6" fill="#A0A0A0"/>
<rect id="Rectangle 17" x="469" y="217" width="6" height="6" fill="#A0A0A0"/>
<rect id="Rectangle 18" x="469" y="179" width="6" height="6" fill="#A0A0A0"/>
<path id="Rectangle 19" d="M305 180C305 177.239 307.239 175 310 175H322.5C336.583 175 348 186.417 348 200.5V200.5C348 214.583 336.583 226 322.5 226H310C307.239 226 305 223.761 305 221V180Z" fill="#222833"/>
<path id="Rectangle 20" d="M417 180C417 177.791 415.209 176 413 176V176C399.745 176 389 186.745 389 200V202C389 215.255 399.745 226 413 226V226C415.209 226 417 224.209 417 222V180Z" fill="#222833"/>
<line id="Line 10" x1="305" y1="200.25" x2="417" y2="200.25" stroke="#4F4A44" stroke-width="1.5"/>
<path id="A" d="M96.85 77C97.05 77.7667 96.9333 78.4667 96.5 79.1C96.0667 79.7 95.45 80 94.65 80H93.2C92.7333 80 92.2833 79.85 91.85 79.55C91.45 79.25 91.1667 78.8833 91 78.45L89.1 72.7C88.9667 72.2667 88.6833 72.05 88.25 72.05H79.7C79.2667 72.05 78.9833 72.2667 78.85 72.7L76.95 78.45C76.7833 78.8833 76.5 79.25 76.1 79.55C75.7 79.85 75.25 80 74.75 80H73.3C72.5 80 71.8833 79.7 71.45 79.1C70.9833 78.4333 70.8833 77.7333 71.15 77L80.85 47.75C81.0167 47.2833 81.2833 46.9167 81.65 46.65C82.05 46.35 82.4833 46.2 82.95 46.2H85C85.4667 46.2 85.9 46.35 86.3 46.65C86.7 46.9167 86.9667 47.2833 87.1 47.75L96.85 77ZM86.75 65.5L84.25 57.85C84.0833 57.6167 83.9 57.6167 83.7 57.85L81.2 65.5C81.1333 65.6667 81.15 65.8167 81.25 65.95C81.35 66.0833 81.4833 66.15 81.65 66.15H86.3C86.4667 66.15 86.6 66.0833 86.7 65.95C86.8 65.8167 86.8167 65.6667 86.75 65.5Z" fill="black"/>
<path id="90" d="M605.75 270.286C609.729 270.286 612.708 271.287 614.686 273.289C616.663 275.291 617.652 277.83 617.652 280.906C617.652 283.982 616.956 286.961 615.564 289.842C614.173 292.698 612.317 295.213 609.998 297.386C605.237 301.878 599.634 304.905 593.189 306.468L592.2 304.051C598.108 301.609 602.479 298.631 605.311 295.115C606.604 293.528 607.691 291.771 608.57 289.842C606.055 292.771 603.028 294.236 599.488 294.236C596.827 294.236 594.568 293.394 592.713 291.709C590.857 290 589.93 287.669 589.93 284.715C589.93 281.272 591.346 278.05 594.178 275.047C595.521 273.655 597.205 272.52 599.231 271.641C601.258 270.738 603.431 270.286 605.75 270.286ZM610.584 281.309C610.584 278.819 610.157 276.829 609.302 275.34C608.472 273.851 607.203 273.106 605.494 273.106C603.809 273.106 602.259 273.753 600.843 275.047C599.427 276.341 598.34 277.928 597.583 279.808C596.851 281.663 596.485 283.47 596.485 285.228C596.485 286.985 596.9 288.414 597.73 289.512C598.56 290.586 599.915 291.124 601.795 291.124C603.675 291.124 605.604 290.11 607.581 288.084C609.583 286.033 610.584 283.775 610.584 281.309ZM633.692 302.842C630.298 302.842 627.503 301.585 625.306 299.07C623.108 296.531 622.095 293.406 622.266 289.695C622.461 285.96 623.499 282.615 625.379 279.661C627.283 276.683 629.59 274.375 632.3 272.74C635.035 271.104 637.781 270.286 640.54 270.286C643.323 270.286 645.704 270.945 647.681 272.264C651.49 274.754 653.26 278.672 652.991 284.019C652.796 287.828 651.648 291.307 649.549 294.456C645.862 300.047 640.577 302.842 633.692 302.842ZM632.447 299.07C633.179 299.681 634.058 299.986 635.083 299.986C637.037 299.986 638.794 299.168 640.357 297.532C643.409 294.334 645.069 289.878 645.337 284.166C645.484 281.041 645.105 278.428 644.202 276.329C643.299 274.205 641.797 273.143 639.698 273.143C637.623 273.143 635.547 274.668 633.472 277.72C631.397 280.748 630.25 284.678 630.03 289.512C629.81 294.346 630.616 297.532 632.447 299.07Z" fill="#191D24" fill-opacity="0.94"/>
<path id="SIDE" d="M78.976 90.416C78.976 90.704 78.904 90.968 78.76 91.208C78.616 91.448 78.424 91.64 78.184 91.784C77.944 91.928 77.68 92 77.392 92H75.088C74.8 92 74.532 91.928 74.284 91.784C74.044 91.64 73.852 91.448 73.708 91.208C73.564 90.968 73.492 90.704 73.492 90.416V90.056C73.492 89.904 73.544 89.776 73.648 89.672C73.76 89.56 73.892 89.504 74.044 89.504H74.38C74.524 89.504 74.648 89.56 74.752 89.672C74.864 89.776 74.92 89.904 74.92 90.056V90.416C74.92 90.456 74.936 90.496 74.968 90.536C75.008 90.568 75.048 90.584 75.088 90.584H77.392C77.432 90.584 77.468 90.568 77.5 90.536C77.532 90.496 77.548 90.456 77.548 90.416V89.324C77.548 89.236 77.508 89.18 77.428 89.156L74.548 88.076C74.228 87.964 73.972 87.768 73.78 87.488C73.588 87.208 73.492 86.9 73.492 86.564V85.484C73.492 85.188 73.564 84.92 73.708 84.68C73.852 84.44 74.044 84.248 74.284 84.104C74.532 83.96 74.8 83.888 75.088 83.888H77.392C77.68 83.888 77.944 83.96 78.184 84.104C78.424 84.248 78.616 84.44 78.76 84.68C78.904 84.92 78.976 85.188 78.976 85.484V85.808C78.976 85.96 78.92 86.088 78.808 86.192C78.704 86.296 78.576 86.348 78.424 86.348H78.1C77.948 86.348 77.816 86.296 77.704 86.192C77.6 86.088 77.548 85.96 77.548 85.808V85.484C77.548 85.372 77.496 85.316 77.392 85.316H75.088C75.048 85.316 75.008 85.332 74.968 85.364C74.936 85.396 74.92 85.436 74.92 85.484V86.564C74.92 86.66 74.96 86.72 75.04 86.744L77.932 87.824C78.244 87.936 78.496 88.132 78.688 88.412C78.88 88.692 78.976 88.996 78.976 89.324V90.416ZM81.3888 91.448C81.3888 91.6 81.3328 91.732 81.2208 91.844C81.1168 91.948 80.9888 92 80.8368 92H80.5128C80.3608 92 80.2288 91.948 80.1168 91.844C80.0128 91.732 79.9608 91.6 79.9608 91.448V84.44C79.9608 84.28 80.0128 84.148 80.1168 84.044C80.2288 83.94 80.3608 83.888 80.5128 83.888H80.8368C80.9888 83.888 81.1168 83.94 81.2208 84.044C81.3328 84.148 81.3888 84.28 81.3888 84.44V91.448ZM87.7028 90.416C87.7028 90.704 87.6308 90.968 87.4868 91.208C87.3428 91.448 87.1508 91.64 86.9108 91.784C86.6708 91.928 86.4068 92 86.1188 92H82.9148C82.7628 92 82.6308 91.948 82.5188 91.844C82.4148 91.732 82.3628 91.6 82.3628 91.448V84.44C82.3628 84.28 82.4148 84.148 82.5188 84.044C82.6308 83.94 82.7628 83.888 82.9148 83.888H86.1188C86.4068 83.888 86.6708 83.96 86.9108 84.104C87.1508 84.248 87.3428 84.44 87.4868 84.68C87.6308 84.92 87.7028 85.188 87.7028 85.484V90.416ZM86.2748 90.416V85.484C86.2748 85.372 86.2228 85.316 86.1188 85.316H83.9588C83.8548 85.316 83.8028 85.368 83.8028 85.472V90.428C83.8028 90.532 83.8548 90.584 83.9588 90.584H86.1188C86.1588 90.584 86.1948 90.568 86.2268 90.536C86.2588 90.496 86.2748 90.456 86.2748 90.416ZM93.8872 91.448C93.8872 91.6 93.8312 91.732 93.7192 91.844C93.6152 91.948 93.4912 92 93.3472 92H89.2192C89.0752 92 88.9472 91.948 88.8352 91.844C88.7312 91.732 88.6792 91.6 88.6792 91.448V84.44C88.6792 84.28 88.7312 84.148 88.8352 84.044C88.9472 83.94 89.0752 83.888 89.2192 83.888H93.3472C93.4912 83.888 93.6152 83.94 93.7192 84.044C93.8312 84.148 93.8872 84.28 93.8872 84.44V84.764C93.8872 84.916 93.8312 85.048 93.7192 85.16C93.6152 85.264 93.4912 85.316 93.3472 85.316H90.2512C90.1552 85.316 90.1072 85.368 90.1072 85.472V87.068C90.1072 87.18 90.1552 87.236 90.2512 87.236H92.9152C93.0752 87.236 93.2072 87.288 93.3112 87.392C93.4152 87.496 93.4672 87.624 93.4672 87.776V88.112C93.4672 88.264 93.4152 88.396 93.3112 88.508C93.2072 88.612 93.0752 88.664 92.9152 88.664H90.2512C90.1552 88.664 90.1072 88.712 90.1072 88.808V90.428C90.1072 90.532 90.1552 90.584 90.2512 90.584H93.3472C93.4912 90.584 93.6152 90.636 93.7192 90.74C93.8312 90.844 93.8872 90.976 93.8872 91.136V91.448Z" fill="black"/>
<rect id="Rectangle 21" x="45" y="175" width="135" height="11" fill="#DB5565"/>
<rect id="Rectangle 22" x="45" y="186" width="135" height="11" fill="#E98147"/>
<rect id="Rectangle 23" x="45" y="197" width="135" height="10" fill="#F8DF60"/>
<rect id="Rectangle 24" x="45" y="207" width="135" height="11" fill="#93DA71"/>
<rect id="Rectangle 25" x="45" y="218" width="135" height="11" fill="#648EBF"/>
<rect id="Rectangle 26" x="544" y="175" width="135" height="11" fill="#DB5565"/>
<rect id="Rectangle 27" x="544" y="186" width="135" height="11" fill="#E98147"/>
<rect id="Rectangle 28" x="544" y="197" width="135" height="10" fill="#F8DF60"/>
<rect id="Rectangle 29" x="544" y="207" width="135" height="11" fill="#93DA71"/>
<rect id="Rectangle 30" x="544" y="218" width="135" height="11" fill="#648EBF"/>
</g>
<defs>
<filter id="filter0_i_2_78" x="5" y="0" width="718" height="434" filterUnits="userSpaceOnUse" color-interpolation-filters="sRGB">
<feFlood flood-opacity="0" result="BackgroundImageFix"/>
<feBlend mode="normal" in="SourceGraphic" in2="BackgroundImageFix" result="shape"/>
<feColorMatrix in="SourceAlpha" type="matrix" values="0 0 0 0 0 0 0 0 0 0 0 0 0 0 0 0 0 0 127 0" result="hardAlpha"/>
<feOffset dx="4" dy="4"/>
<feGaussianBlur stdDeviation="2"/>
<feComposite in2="hardAlpha" operator="arithmetic" k2="-1" k3="1"/>
<feColorMatrix type="matrix" values="0 0 0 0 0 0 0 0 0 0 0 0 0 0 0 0 0 0 0.37 0"/>
<feBlend mode="normal" in2="shape" result="effect1_innerShadow_2_78"/>
</filter>
<filter id="filter1_i_2_78" x="207" y="167" width="65" height="65" filterUnits="userSpaceOnUse" color-interpolation-filters="sRGB">
<feFlood flood-opacity="0" result="BackgroundImageFix"/>
<feBlend mode="normal" in="SourceGraphic" in2="BackgroundImageFix" result="shape"/>
<feColorMatrix in="SourceAlpha" type="matrix" values="0 0 0 0 0 0 0 0 0 0 0 0 0 0 0 0 0 0 127 0" result="hardAlpha"/>
<feOffset dx="2" dy="-2"/>
<feGaussianBlur stdDeviation="1"/>
<feComposite in2="hardAlpha" operator="arithmetic" k2="-1" k3="1"/>
<feColorMatrix type="matrix" values="0 0 0 0 0 0 0 0 0 0 0 0 0 0 0 0 0 0 0.25 0"/>
<feBlend mode="normal" in2="shape" result="effect1_innerShadow_2_78"/>
</filter>
<filter id="filter2_i_2_78" x="456" y="167" width="65" height="65" filterUnits="userSpaceOnUse" color-interpolation-filters="sRGB">
<feFlood flood-opacity="0" result="BackgroundImageFix"/>
<feBlend mode="normal" in="SourceGraphic" in2="BackgroundImageFix" result="shape"/>
<feColorMatrix in="SourceAlpha" type="matrix" values="0 0 0 0 0 0 0 0 0 0 0 0 0 0 0 0 0 0 127 0" result="hardAlpha"/>
<feOffset dx="2" dy="-2"/>
<feGaussianBlur stdDeviation="1"/>
<feComposite in2="hardAlpha" operator="arithmetic" k2="-1" k3="1"/>
<feColorMatrix type="matrix" values="0 0 0 0 0 0 0 0 0 0 0 0 0 0 0 0 0 0 0.25 0"/>
<feBlend mode="normal" in2="shape" result="effect1_innerShadow_2_78"/>
</filter>
<filter id="filter3_i_2_78" x="164" y="351" width="404" height="80" filterUnits="userSpaceOnUse" color-interpolation-filters="sRGB">
<feFlood flood-opacity="0" result="BackgroundImageFix"/>
<feBlend mode="normal" in="SourceGraphic" in2="BackgroundImageFix" result="shape"/>
<feColorMatrix in="SourceAlpha" type="matrix" values="0 0 0 0 0 0 0 0 0 0 0 0 0 0 0 0 0 0 127 0" result="hardAlpha"/>
<feOffset dx="6" dy="4"/>
<feGaussianBlur stdDeviation="1"/>
<feComposite in2="hardAlpha" operator="arithmetic" k2="-1" k3="1"/>
<feColorMatrix type="matrix" values="0 0 0 0 0.00416667 0 0 0 0 0.0040625 0 0 0 0 0.0040625 0 0 0 0.26 0"/>
<feBlend mode="normal" in2="shape" result="effect1_innerShadow_2_78"/>
</filter>
<filter id="filter4_i_2_78" x="13" y="8.00002" width="21" height="21" filterUnits="userSpaceOnUse" color-interpolation-filters="sRGB">
<feFlood flood-opacity="0" result="BackgroundImageFix"/>
<feBlend mode="normal" in="SourceGraphic" in2="BackgroundImageFix" result="shape"/>
<feColorMatrix in="SourceAlpha" type="matrix" values="0 0 0 0 0 0 0 0 0 0 0 0 0 0 0 0 0 0 127 0" result="hardAlpha"/>
<feOffset dx="1" dy="1"/>
<feGaussianBlur stdDeviation="2"/>
<feComposite in2="hardAlpha" operator="arithmetic" k2="-1" k3="1"/>
<feColorMatrix type="matrix" values="0 0 0 0 0.172549 0 0 0 0 0.223529 0 0 0 0 0.313726 0 0 0 0.59 0"/>
<feBlend mode="normal" in2="shape" result="effect1_innerShadow_2_78"/>
</filter>
<filter id="filter5_i_2_78" x="690.997" y="7.99737" width="21.0053" height="21.0053" filterUnits="userSpaceOnUse" color-interpolation-filters="sRGB">
<feFlood flood-opacity="0" result="BackgroundImageFix"/>
<feBlend mode="normal" in="SourceGraphic" in2="BackgroundImageFix" result="shape"/>
<feColorMatrix in="SourceAlpha" type="matrix" values="0 0 0 0 0 0 0 0 0 0 0 0 0 0 0 0 0 0 127 0" result="hardAlpha"/>
<feOffset dx="1" dy="1"/>
<feGaussianBlur stdDeviation="2"/>
<feComposite in2="hardAlpha" operator="arithmetic" k2="-1" k3="1"/>
<feColorMatrix type="matrix" values="0 0 0 0 0.172549 0 0 0 0 0.223529 0 0 0 0 0.313726 0 0 0 0.59 0"/>
<feBlend mode="normal" in2="shape" result="effect1_innerShadow_2_78"/>
</filter>
<filter id="filter6_i_2_78" x="691.026" y="403.026" width="21.0021" height="21.002" filterUnits="userSpaceOnUse" color-interpolation-filters="sRGB">
<feFlood flood-opacity="0" result="BackgroundImageFix"/>
<feBlend mode="normal" in="SourceGraphic" in2="BackgroundImageFix" result="shape"/>
<feColorMatrix in="SourceAlpha" type="matrix" values="0 0 0 0 0 0 0 0 0 0 0 0 0 0 0 0 0 0 127 0" result="hardAlpha"/>
<feOffset dx="1" dy="1"/>
<feGaussianBlur stdDeviation="2"/>
<feComposite in2="hardAlpha" operator="arithmetic" k2="-1" k3="1"/>
<feColorMatrix type="matrix" values="0 0 0 0 0.172549 0 0 0 0 0.223529 0 0 0 0 0.313726 0 0 0 0.59 0"/>
<feBlend mode="normal" in2="shape" result="effect1_innerShadow_2_78"/>
</filter>
<filter id="filter7_i_2_78" x="13.8778" y="402.878" width="21.0019" height="21.0019" filterUnits="userSpaceOnUse" color-interpolation-filters="sRGB">
<feFlood flood-opacity="0" result="BackgroundImageFix"/>
<feBlend mode="normal" in="SourceGraphic" in2="BackgroundImageFix" result="shape"/>
<feColorMatrix in="SourceAlpha" type="matrix" values="0 0 0 0 0 0 0 0 0 0 0 0 0 0 0 0 0 0 127 0" result="hardAlpha"/>
<feOffset dx="1" dy="1"/>
<feGaussianBlur stdDeviation="2"/>
<feComposite in2="hardAlpha" operator="arithmetic" k2="-1" k3="1"/>
<feColorMatrix type="matrix" values="0 0 0 0 0.172549 0 0 0 0 0.223529 0 0 0 0 0.313726 0 0 0 0.59 0"/>
<feBlend mode="normal" in2="shape" result="effect1_innerShadow_2_78"/>
</filter>
<filter id="filter8_i_2_78" x="353.949" y="359.949" width="16.1027" height="16.1027" filterUnits="userSpaceOnUse" color-interpolation-filters="sRGB">
<feFlood flood-opacity="0" result="BackgroundImageFix"/>
<feBlend mode="normal" in="SourceGraphic" in2="BackgroundImageFix" result="shape"/>
<feColorMatrix in="SourceAlpha" type="matrix" values="0 0 0 0 0 0 0 0 0 0 0 0 0 0 0 0 0 0 127 0" result="hardAlpha"/>
<feOffset dx="1" dy="1"/>
<feGaussianBlur stdDeviation="2"/>
<feComposite in2="hardAlpha" operator="arithmetic" k2="-1" k3="1"/>
<feColorMatrix type="matrix" values="0 0 0 0 0.172549 0 0 0 0 0.223529 0 0 0 0 0.313726 0 0 0 0.59 0"/>
<feBlend mode="normal" in2="shape" result="effect1_innerShadow_2_78"/>
</filter>
<linearGradient id="paint0_linear_2_78" x1="362" y1="-1.52416e-05" x2="670" y2="319" gradientUnits="userSpaceOnUse">
<stop stop-color="#2C3950"/>
<stop offset="0.905894" stop-color="#3E4D69"/>
</linearGradient>
<linearGradient id="paint1_linear_2_78" x1="362" y1="31" x2="669" y2="338" gradientUnits="userSpaceOnUse">
<stop stop-color="#FEEBD8"/>
<stop offset="1" stop-color="#BCAFA1"/>
</linearGradient>
</defs>
</svg>
